<svg xmlns="http://www.w3.org/2000/svg" version="1.1" xmlns:xlink="http://www.w3.org/1999/xlink" xmlns:svgjs="http://svgjs.dev/svgjs" width="128" height="128" viewBox="0 0 128 128"><g transform="matrix(0.8046875,0,0,0.8046875,12.329657424420198,12.360446011513154)"><svg viewBox="0 0 94 95" data-background-color="#171b1f" preserveAspectRatio="xMidYMid meet" height="129" width="128" xmlns="http://www.w3.org/2000/svg" xmlns:xlink="http://www.w3.org/1999/xlink"><g id="tight-bounds" transform="matrix(1,0,0,1,0.15545827285923508,-0.24049999999999727)"><svg viewBox="0 0 93.68908345428152 95.48099999999998" height="95.48099999999998" width="93.68908345428152"><g><svg viewBox="0 0 93.68908345428152 95.48099999999998" height="95.48099999999998" width="93.68908345428152"><g><svg viewBox="0 0 93.68908345428152 95.48099999999998" height="95.48099999999998" width="93.68908345428152"><g><svg viewBox="0 0 93.68908345428152 95.48099999999998" height="95.48099999999998" width="93.68908345428152"><g><svg viewBox="0 0 93.68908345428152 95.48099999999998" height="95.48099999999998" width="93.68908345428152"><g><svg viewBox="0 0 93.68908345428152 95.48099999999998" height="95.48099999999998" width="93.68908345428152"><g><svg xmlns="http://www.w3.org/2000/svg" xmlns:xlink="http://www.w3.org/1999/xlink" version="1.1" x="0" y="0" viewBox="10.722325677499347 8.771978754761573 68.71250835811394 70.02671782719052" enable-background="new 0 0 90 90" xml:space="preserve" height="95.48099999999998" width="93.68908345428152" class="icon-icon-0" data-fill-palette-color="accent" id="icon-0"><path d="M74.058 55.333c-0.934-0.094-1.879-0.14-2.83-0.153 0.338-0.065 0.676-0.145 1.013-0.253 3.163-1.028 4.082-6.021 5.192-8.691 0.078-0.188 0.112-0.363 0.126-0.532 0.658-1.053 0.856-2.502 1.011-3.643 0.602-4.466 0.343-9.303-5.151-9.856-0.934-0.094-1.879-0.139-2.828-0.154 0.337-0.065 0.674-0.144 1.011-0.253 3.164-1.026 4.082-6.021 5.193-8.69 0.078-0.189 0.111-0.364 0.125-0.533 0.659-1.054 0.856-2.503 1.011-3.643 0.603-4.466 0.344-9.302-5.152-9.856-3.745-0.377-7.671 0.029-11.436 0.073-4.518 0.053-9.034 0.188-13.551 0.299C38.754 9.671 29.71 9.782 20.688 9.117 20.369 9.094 20.1 9.15 19.871 9.254c-0.247-0.069-0.509-0.089-0.767-0.06-0.756-0.579-1.986-0.654-2.687 0.362-1.673 2.424-5.558 3.307-5.689 6.792-0.07 1.874 0.521 3.542 1.036 5.324 0.755 2.612 1.098 5.594 1.315 8.291 0.025 0.313 0.118 0.59 0.251 0.83 0.101 0.783 0.656 1.496 1.676 1.497 0.805 0.001 1.61 0.005 2.417 0.008-0.131 0.107-0.256 0.23-0.364 0.388-1.674 2.425-5.557 3.308-5.689 6.792-0.071 1.874 0.52 3.542 1.035 5.324 0.755 2.611 1.097 5.594 1.315 8.289 0.025 0.313 0.117 0.589 0.25 0.828 0.1 0.783 0.655 1.499 1.675 1.499 0.806 0.001 1.611 0.006 2.417 0.009-0.13 0.107-0.255 0.23-0.364 0.388-1.673 2.426-5.556 3.307-5.688 6.792-0.071 1.873 0.52 3.541 1.035 5.323 0.756 2.611 1.097 5.595 1.314 8.29 0.025 0.314 0.118 0.59 0.251 0.83 0.101 0.782 0.656 1.497 1.675 1.497 13.338 0.011 26.675 0.349 40.014 0.224 3.423-0.033 6.847-0.11 10.268-0.224 2.145-0.07 4.232 0.185 6.313-0.491 3.163-1.027 4.082-6.021 5.192-8.689 0.079-0.189 0.112-0.364 0.126-0.533 0.658-1.054 0.856-2.503 1.01-3.643C79.812 60.724 79.553 55.887 74.058 55.333zM49.957 32.539c-0.509 0.013-1.018 0.026-1.526 0.039-8.613 0.212-17.233 0.314-25.834-0.25C31.717 32.399 40.836 32.553 49.957 32.539zM20.711 32.312c-0.07 0.021-0.137 0.043-0.2 0.071-0.165-0.046-0.335-0.074-0.508-0.077C20.238 32.308 20.475 32.31 20.711 32.312zM50.578 55.667c-0.503 0.014-1.006 0.026-1.507 0.039-8.614 0.212-17.233 0.314-25.834-0.251C32.351 55.528 41.463 55.682 50.578 55.667zM21.35 55.44c-0.07 0.021-0.137 0.043-0.2 0.071-0.165-0.046-0.335-0.074-0.508-0.077C20.878 55.437 21.114 55.439 21.35 55.44zM75.878 63.444c-0.049 1.043-0.218 2.06-0.486 3.067-0.094 0.16-0.142 0.271-0.15 0.339-0.317 0.06-0.655 0.077-0.956 0.107-1.941 0.191-3.911 0.181-5.859 0.187-2.631 0.006-5.441 0.838-8.042 1.239-3.798 0.586-7.576 1.056-11.415 1.199-5.69 0.215-11.391 0.197-17.063 0.723-2.036 0.189-8.823 1.798-9.671-0.748-1.081-3.25-0.284-7.147 0.012-10.657 14.19 1.02 28.406 0.114 42.611-0.01 2.797-0.024 5.613-0.242 8.408-0.13C76.321 58.884 75.988 61.047 75.878 63.444zM75.238 40.315c-0.049 1.043-0.218 2.061-0.487 3.068-0.093 0.16-0.141 0.271-0.149 0.339-0.318 0.06-0.654 0.077-0.956 0.106-1.941 0.192-3.91 0.182-5.859 0.187-2.63 0.007-5.441 0.838-8.042 1.239-3.798 0.585-7.576 1.056-11.415 1.2-5.69 0.214-11.391 0.196-17.063 0.722-2.037 0.189-8.823 1.798-9.671-0.749-1.081-3.249-0.283-7.146 0.012-10.656 14.19 1.02 28.408 0.114 42.611-0.01 2.796-0.024 5.613-0.242 8.407-0.129C75.681 35.755 75.348 37.917 75.238 40.315zM63.578 12.633c2.797-0.025 5.613-0.243 8.407-0.13 3.056 0.123 2.724 2.286 2.612 4.684-0.048 1.044-0.216 2.06-0.485 3.068-0.094 0.16-0.142 0.27-0.149 0.338-0.318 0.06-0.656 0.077-0.958 0.107-1.94 0.192-3.91 0.182-5.858 0.187-2.631 0.006-5.44 0.838-8.043 1.239-3.797 0.585-7.575 1.055-11.414 1.199-5.69 0.215-11.39 0.197-17.064 0.723-2.036 0.188-8.823 1.797-9.671-0.75-1.081-3.249-0.283-7.146 0.012-10.656C35.157 13.663 49.374 12.756 63.578 12.633zM19.952 32.306c-0.069 0.001-0.139 0.009-0.208 0.017-0.008-0.005-0.018-0.011-0.026-0.018C19.796 32.305 19.875 32.305 19.952 32.306zM20.591 55.435c-0.069 0.001-0.138 0.009-0.207 0.017-0.008-0.006-0.017-0.011-0.025-0.017C20.436 55.435 20.514 55.435 20.591 55.435z" fill="#ffffff" data-fill-palette-color="accent"></path></svg></g></svg></g></svg></g></svg></g></svg></g></svg></g><defs></defs></svg><rect width="93.68908345428152" height="95.48099999999998" fill="none" stroke="none" visibility="hidden"></rect></g></svg></g></svg>